<svg width="236" height="181" viewBox="0 0 236 181" fill="none" xmlns="http://www.w3.org/2000/svg">
<g clip-path="url(#clip0)">
<path d="M54.3411 125.263L72.6131 96.5815L31.6925 70.6088L10.5601 103.78L44.4065 125.263H54.3411Z" fill="#F0F0F0"/>
<path d="M80.2341 134.21H34.9738V125.116H80.2341V134.21ZM35.5616 133.623H79.6463V125.703H35.5616V133.623Z" fill="#3F3D56"/>
<path d="M74.6501 132.596C76.2732 132.596 77.5891 131.283 77.5891 129.663C77.5891 128.043 76.2732 126.729 74.6501 126.729C73.0269 126.729 71.7111 128.043 71.7111 129.663C71.7111 131.283 73.0269 132.596 74.6501 132.596Z" fill="#D42A53"/>
<path d="M66.4209 132.596C68.0441 132.596 69.3599 131.283 69.3599 129.663C69.3599 128.043 68.0441 126.729 66.4209 126.729C64.7978 126.729 63.4819 128.043 63.4819 129.663C63.4819 131.283 64.7978 132.596 66.4209 132.596Z" fill="#D42A53"/>
<path d="M58.1918 132.596C59.8149 132.596 61.1308 131.283 61.1308 129.663C61.1308 128.043 59.8149 126.729 58.1918 126.729C56.5686 126.729 55.2528 128.043 55.2528 129.663C55.2528 131.283 56.5686 132.596 58.1918 132.596Z" fill="#D42A53"/>
<path d="M49.9626 132.596C51.5858 132.596 52.9016 131.283 52.9016 129.663C52.9016 128.043 51.5858 126.729 49.9626 126.729C48.3395 126.729 47.0237 128.043 47.0237 129.663C47.0237 131.283 48.3395 132.596 49.9626 132.596Z" fill="#D42A53"/>
<path d="M41.7335 132.596C43.3567 132.596 44.6725 131.283 44.6725 129.663C44.6725 128.043 43.3567 126.729 41.7335 126.729C40.1104 126.729 38.7945 128.043 38.7945 129.663C38.7945 131.283 40.1104 132.596 41.7335 132.596Z" fill="#D42A53"/>
<path d="M134.017 33.1491V10.8541H145.186V0H90.5205V54.564H137.25V49.2292C137.25 48.2347 137.447 47.25 137.828 46.3312C138.209 45.4124 138.768 44.5776 139.472 43.8744C140.177 43.1712 141.013 42.6134 141.934 42.2329C142.854 41.8523 143.841 41.6564 144.837 41.6564H145.186V33.1491H134.017Z" fill="#F0F0F0"/>
<path d="M194.56 140.81H158.117V148.438H194.56V140.81Z" fill="#D42A53"/>
<path d="M202.496 103.261H149.006V110.301H202.496V103.261Z" fill="#F0F0F0"/>
<path d="M228.653 180.413H0V181H228.653V180.413Z" fill="#3F3D56"/>
<path d="M211.661 181H144.837C142.748 180.998 140.745 180.168 139.267 178.693C137.79 177.219 136.959 175.219 136.956 173.134V49.2292C136.959 47.1437 137.79 45.1443 139.267 43.6696C140.745 42.1949 142.748 41.3654 144.837 41.363H211.661C213.75 41.3654 215.753 42.1949 217.231 43.6696C218.708 45.1443 219.539 47.1437 219.542 49.2292V173.134C219.539 175.219 218.708 177.219 217.231 178.693C215.753 180.168 213.75 180.998 211.661 181V181ZM144.837 41.9497C142.904 41.9519 141.05 42.7196 139.683 44.0843C138.315 45.449 137.546 47.2992 137.544 49.2292V173.134C137.546 175.064 138.315 176.914 139.683 178.279C141.05 179.643 142.904 180.411 144.837 180.413H211.661C213.595 180.411 215.448 179.643 216.815 178.279C218.183 176.914 218.952 175.064 218.954 173.134V49.2292C218.952 47.2992 218.183 45.449 216.815 44.0843C215.448 42.7196 213.595 41.9519 211.661 41.9497H144.837Z" fill="#3F3D56"/>
<path d="M170.314 47.2302C169.965 47.2302 169.624 47.1269 169.334 46.9335C169.044 46.7401 168.818 46.4652 168.685 46.1436C168.551 45.822 168.516 45.4681 168.584 45.1266C168.652 44.7852 168.82 44.4716 169.067 44.2254C169.314 43.9793 169.628 43.8116 169.97 43.7437C170.312 43.6758 170.666 43.7106 170.989 43.8439C171.311 43.9771 171.586 44.2027 171.78 44.4921C171.974 44.7816 172.077 45.1219 172.077 45.47C172.077 45.9367 171.891 46.3841 171.56 46.7141C171.23 47.044 170.781 47.2296 170.314 47.2302V47.2302ZM170.314 44.2966C170.081 44.2966 169.854 44.3654 169.661 44.4944C169.467 44.6233 169.317 44.8066 169.228 45.021C169.139 45.2354 169.115 45.4713 169.161 45.6989C169.206 45.9266 169.318 46.1357 169.483 46.2998C169.647 46.4639 169.856 46.5756 170.084 46.6209C170.313 46.6662 170.549 46.6429 170.764 46.5541C170.979 46.4653 171.162 46.3149 171.291 46.1219C171.42 45.929 171.489 45.7021 171.489 45.47C171.489 45.1589 171.365 44.8606 171.145 44.6406C170.924 44.4207 170.625 44.2969 170.314 44.2966V44.2966Z" fill="#3F3D56"/>
<path d="M187.654 45.1767H174.722V45.7634H187.654V45.1767Z" fill="#3F3D56"/>
<path d="M214.252 49.8703V73.3387C208.016 73.3385 202.036 70.8658 197.627 66.4647C193.217 62.0636 190.74 56.0945 190.74 49.8703H214.252Z" fill="#D42A53"/>
<path d="M214.545 173.079H141.953V49.577H214.545V173.079ZM142.54 172.493H213.958V50.1637H142.54V172.493Z" fill="#3F3D56"/>
<path opacity="0.1" d="M197.205 71.872C201.588 71.872 205.141 68.3258 205.141 63.9514C205.141 59.577 201.588 56.0308 197.205 56.0308C192.823 56.0308 189.27 59.577 189.27 63.9514C189.27 68.3258 192.823 71.872 197.205 71.872Z" fill="black"/>
<path d="M196.03 72.752C200.412 72.752 203.965 69.2059 203.965 64.8314C203.965 60.457 200.412 56.9109 196.03 56.9109C191.647 56.9109 188.095 60.457 188.095 64.8314C188.095 69.2059 191.647 72.752 196.03 72.752Z" fill="#D42A53"/>
<path d="M156.354 54.564H145.186V58.671H156.354V54.564Z" fill="#3F3D56"/>
<path d="M162.526 93.5802H151.357V97.6872H162.526V93.5802Z" fill="#3F3D56"/>
<path d="M205.435 108.835H151.357V101.207H205.435V108.835ZM151.945 108.248H204.847V101.794H151.945V108.248Z" fill="#3F3D56"/>
<path d="M202.496 125.556H149.006V132.596H202.496V125.556Z" fill="#F0F0F0"/>
<path d="M162.526 115.875H151.357V119.982H162.526V115.875Z" fill="#3F3D56"/>
<path d="M205.435 131.13H151.357V123.502H205.435V131.13ZM151.945 130.543H204.847V124.089H151.945V130.543Z" fill="#3F3D56"/>
<path d="M196.912 146.677H159.88V138.464H196.912V146.677ZM160.468 146.091H196.324V139.05H160.468V146.091Z" fill="#3F3D56"/>
<path d="M203.965 105.901C203.965 106.505 203.778 107.094 203.43 107.588C203.082 108.082 202.59 108.457 202.021 108.662C201.451 108.866 200.833 108.89 200.249 108.73C199.666 108.571 199.146 108.235 198.76 107.77L198.757 107.767C198.476 107.427 198.276 107.028 198.171 106.6C198.065 106.171 198.058 105.725 198.15 105.294C198.241 104.862 198.429 104.457 198.699 104.108C198.969 103.759 199.314 103.476 199.709 103.278C200.104 103.081 200.538 102.975 200.98 102.968C201.421 102.961 201.859 103.054 202.26 103.239C202.66 103.424 203.014 103.697 203.295 104.038C203.575 104.378 203.775 104.778 203.88 105.206C203.88 105.206 203.88 105.207 203.88 105.207C203.88 105.207 203.881 105.208 203.881 105.208C203.881 105.208 203.881 105.208 203.882 105.209C203.882 105.209 203.882 105.209 203.883 105.209C203.937 105.436 203.965 105.668 203.965 105.901V105.901Z" fill="#D42A53"/>
<path opacity="0.1" d="M203.965 105.901C203.965 106.505 203.778 107.094 203.43 107.588C203.082 108.082 202.59 108.457 202.021 108.662C201.451 108.866 200.833 108.89 200.249 108.73C199.666 108.571 199.146 108.235 198.76 107.77L198.757 107.767C198.703 107.54 198.675 107.308 198.675 107.075C198.675 106.471 198.862 105.881 199.21 105.387C199.558 104.893 200.05 104.519 200.619 104.314C201.189 104.11 201.807 104.086 202.391 104.245C202.974 104.405 203.494 104.74 203.88 105.206C203.88 105.206 203.88 105.207 203.88 105.207C203.88 105.207 203.88 105.208 203.881 105.208C203.881 105.208 203.881 105.208 203.882 105.209C203.882 105.209 203.882 105.209 203.883 105.209C203.937 105.436 203.965 105.668 203.965 105.901V105.901Z" fill="black"/>
<path d="M202.202 110.595C203.825 110.595 205.141 109.281 205.141 107.661C205.141 106.041 203.825 104.728 202.202 104.728C200.579 104.728 199.263 106.041 199.263 107.661C199.263 109.281 200.579 110.595 202.202 110.595Z" fill="#D42A53"/>
<path d="M203.965 128.196C203.965 128.8 203.778 129.389 203.43 129.883C203.082 130.377 202.59 130.752 202.021 130.956C201.451 131.161 200.833 131.185 200.249 131.025C199.666 130.866 199.146 130.53 198.76 130.065L198.757 130.062C198.476 129.722 198.276 129.323 198.171 128.895C198.065 128.466 198.058 128.02 198.15 127.589C198.241 127.157 198.429 126.752 198.699 126.403C198.969 126.054 199.314 125.771 199.709 125.573C200.104 125.376 200.538 125.27 200.98 125.263C201.421 125.256 201.859 125.349 202.26 125.534C202.66 125.719 203.014 125.992 203.295 126.333C203.575 126.673 203.775 127.073 203.88 127.501C203.88 127.501 203.88 127.502 203.88 127.502C203.88 127.502 203.881 127.503 203.881 127.503C203.881 127.503 203.881 127.503 203.882 127.504C203.882 127.504 203.882 127.504 203.883 127.504C203.937 127.731 203.965 127.963 203.965 128.196V128.196Z" fill="#D42A53"/>
<path opacity="0.1" d="M203.965 128.196C203.965 128.8 203.778 129.389 203.43 129.883C203.082 130.377 202.59 130.752 202.021 130.956C201.451 131.161 200.833 131.185 200.249 131.025C199.666 130.866 199.146 130.53 198.76 130.065L198.757 130.062C198.703 129.835 198.675 129.603 198.675 129.37C198.675 128.766 198.862 128.176 199.21 127.682C199.558 127.188 200.05 126.814 200.619 126.609C201.189 126.405 201.807 126.381 202.391 126.54C202.974 126.7 203.494 127.035 203.88 127.501C203.88 127.501 203.88 127.502 203.88 127.502C203.88 127.502 203.88 127.503 203.881 127.503C203.881 127.503 203.881 127.503 203.882 127.504C203.882 127.504 203.882 127.504 203.883 127.504C203.937 127.731 203.965 127.963 203.965 128.196V128.196Z" fill="black"/>
<path d="M202.202 132.89C203.825 132.89 205.141 131.576 205.141 129.956C205.141 128.336 203.825 127.023 202.202 127.023C200.579 127.023 199.263 128.336 199.263 129.956C199.263 131.576 200.579 132.89 202.202 132.89Z" fill="#D42A53"/>
<path d="M152.827 14.081H137.544V29.3355H152.827V14.081Z" fill="#F0F0F0"/>
<path d="M197.205 25.2285C196.508 25.2285 195.826 25.0221 195.246 24.6353C194.666 24.2485 194.214 23.6987 193.947 23.0554C193.68 22.4122 193.61 21.7044 193.746 21.0215C193.883 20.3386 194.218 19.7114 194.712 19.2191C195.205 18.7268 195.833 18.3915 196.517 18.2557C197.202 18.1198 197.911 18.1895 198.555 18.456C199.2 18.7224 199.75 19.1736 200.138 19.7525C200.525 20.3314 200.732 21.012 200.732 21.7083C200.731 22.6416 200.359 23.5364 199.698 24.1963C199.037 24.8563 198.141 25.2275 197.205 25.2285V25.2285ZM197.205 18.7747C196.624 18.7747 196.056 18.9468 195.573 19.2691C195.089 19.5915 194.713 20.0496 194.49 20.5857C194.268 21.1217 194.21 21.7115 194.323 22.2806C194.436 22.8496 194.716 23.3724 195.127 23.7826C195.538 24.1929 196.062 24.4723 196.632 24.5855C197.202 24.6987 197.793 24.6406 198.33 24.4185C198.867 24.1965 199.326 23.8205 199.649 23.3381C199.972 22.8557 200.144 22.2885 200.144 21.7083C200.144 20.9305 199.834 20.1849 199.283 19.6349C198.732 19.085 197.985 18.7756 197.205 18.7747V18.7747Z" fill="#3F3D56"/>
<path d="M119.616 74.2188H111.975V66.5916H119.616V74.2188ZM112.563 73.6321H119.029V67.1783H112.563V73.6321Z" fill="#3F3D56"/>
<path d="M236 131.13H228.359V123.502H236V131.13ZM228.946 130.543H235.412V124.089H228.946V130.543Z" fill="#3F3D56"/>
<path d="M85.2312 79.988L86.5425 80.693L91.0045 83.0934L98.208 86.9674L102.406 79.193C102.801 78.4626 103.048 77.6614 103.133 76.8355C103.218 76.0096 103.139 75.175 102.9 74.3797C102.661 73.5844 102.268 72.8438 101.742 72.2004C101.216 71.5571 100.569 71.0235 99.8361 70.6303C98.2706 69.7865 96.477 69.4604 94.7139 69.6992C92.9508 69.938 91.3091 70.7292 90.0254 71.959L90.0232 71.9612C89.3916 72.5667 88.8586 73.2669 88.4435 74.0365L85.2312 79.988Z" fill="#2F2E41"/>
<path d="M104.892 159.273L104.012 168.936L100.712 169.375L98.5116 158.395L104.892 159.273Z" fill="#FFB8B8"/>
<path d="M99.8317 169.375C99.8317 169.375 104.012 167.179 104.892 168.936C104.892 168.936 104.232 174.207 106.872 174.866C109.513 175.525 110.613 180.136 106.872 180.576C103.132 181.015 100.712 179.697 99.3917 179.697C98.0716 179.697 99.3917 175.085 99.3917 175.085L99.8317 169.375Z" fill="#2F2E41"/>
<path d="M78.2697 159.273L79.1499 168.936L82.4501 169.375L84.6502 158.395L78.2697 159.273Z" fill="#FFB8B8"/>
<path d="M83.3302 169.375C83.3302 169.375 79.1498 167.179 78.2697 168.936C78.2697 168.936 78.9298 174.207 76.2895 174.866C73.6493 175.525 72.5492 180.136 76.2895 180.576C80.0299 181.015 82.4501 179.697 83.7702 179.697C85.0903 179.697 83.7702 175.085 83.7702 175.085L83.3302 169.375Z" fill="#2F2E41"/>
<path d="M96.3114 81.7494C99.4707 81.7494 102.032 79.1929 102.032 76.0394C102.032 72.8859 99.4707 70.3294 96.3114 70.3294C93.152 70.3294 90.5909 72.8859 90.5909 76.0394C90.5909 79.1929 93.152 81.7494 96.3114 81.7494Z" fill="#FFB8B8"/>
<path d="M78.0497 87.2397L82.6701 94.487L88.1706 94.0478L97.1915 94.7066C97.1915 94.7066 98.043 93.0068 98.7382 91.3531C99.1189 90.5273 99.4116 89.6639 99.6117 88.777C99.8317 87.2397 96.7514 85.7024 96.7514 85.7024C96.7514 85.7024 96.6304 85.6805 96.428 85.6322C96.1596 85.5685 95.7459 85.463 95.2927 85.3093C94.2696 84.9623 93.0397 84.3738 92.791 83.5063C92.351 81.969 95.6513 79.7728 95.6513 79.7728L91.6909 76.0394C91.6909 76.0394 88.1728 80.917 83.9 82.0283C83.6523 82.0936 83.4011 82.1449 83.1475 82.182C83.1343 82.1842 83.1234 82.1864 83.1101 82.1886C78.4897 82.8474 78.0497 87.2397 78.0497 87.2397Z" fill="#FFB8B8"/>
<path d="M80.4699 85.2632L78.0497 87.2397C78.0497 87.2397 76.0695 96.6831 76.7296 99.3185C77.3896 101.954 76.5095 104.37 76.5095 104.809C76.5095 105.248 74.5294 121.719 74.5294 121.719C74.5294 121.719 70.569 130.504 74.7494 129.625C78.9298 128.747 77.3896 119.962 77.3896 119.962L82.4501 104.589V91.632L80.4699 85.2632Z" fill="#FFB8B8"/>
<path d="M97.8515 87.0201L99.6117 88.3378L100.492 106.785L107.092 122.598C107.092 122.598 111.933 130.284 108.853 130.504C105.772 130.723 103.792 122.598 103.792 122.598L97.8515 107.444L96.9714 92.7301L97.8515 87.0201Z" fill="#FFB8B8"/>
<path d="M86.8505 88.3378C86.8505 88.3378 91.2509 91.4124 98.2916 90.3143C98.2916 90.3143 100.272 94.2674 99.1717 96.4635C98.0715 98.6596 100.492 103.93 100.932 104.589C101.372 105.248 106.432 118.864 108.192 133.578C109.953 148.292 114.793 158.395 110.613 159.712C106.432 161.03 97.8515 162.567 96.9714 161.25C96.0914 159.932 94.7712 127.209 94.7712 127.209L92.351 139.727C92.351 139.727 95.6513 161.03 93.2311 161.469C90.8109 161.908 75.6295 160.591 76.0695 157.955C76.5095 155.32 80.9099 141.484 80.9099 141.484C80.9099 141.484 80.6899 113.813 85.0904 108.542C85.0904 108.542 86.8505 105.687 84.4303 101.954C82.0101 98.2204 82.2301 92.2908 82.2301 92.2908C82.2301 92.2908 83.9903 92.2908 86.8505 88.3378Z" fill="#2F2E41"/>
<path d="M83.1475 82.1819L86.8506 90.3143L87.7306 89.8751L83.8999 82.0282L83.1475 82.1819Z" fill="#2F2E41"/>
<path d="M95.2927 85.3093L98.0716 91.4124L98.7382 91.3531L98.5116 90.3143L96.428 85.6321C96.1596 85.5684 95.7459 85.463 95.2927 85.3093Z" fill="#2F2E41"/>
<path d="M86.5425 80.693C86.754 81.3724 87.1618 81.9744 87.7145 82.4235C88.2673 82.8726 88.9406 83.149 89.65 83.2179C90.3594 83.2869 91.0735 83.1453 91.7027 82.811C92.3318 82.4768 92.8482 81.9646 93.1871 81.3387C90.4038 77.7063 92.7911 75.4245 97.3125 73.6983C97.6531 73.0674 97.7979 72.3496 97.7285 71.6363C97.6592 70.9229 97.3788 70.2463 96.9231 69.6926C95.6768 69.5335 94.4107 69.6544 93.2172 70.0465C92.0238 70.4386 90.9333 71.0921 90.0254 71.959L90.0232 71.9612L86.8109 77.9083C86.5821 78.3311 86.4405 78.7953 86.3944 79.2736C86.3483 79.7518 86.3986 80.2345 86.5425 80.693V80.693Z" fill="#2F2E41"/>
<path d="M92.9011 78.0159C93.3264 78.0159 93.6712 77.426 93.6712 76.6982C93.6712 75.9705 93.3264 75.3806 92.9011 75.3806C92.4758 75.3806 92.131 75.9705 92.131 76.6982C92.131 77.426 92.4758 78.0159 92.9011 78.0159Z" fill="#FFB8B8"/>
<path d="M95.1959 74.5482L101.81 77.5394L103.022 74.8689C102.813 73.8928 102.376 72.98 101.746 72.2049L97.1937 70.1472L95.1959 74.5482Z" fill="#2F2E41"/>
<path d="M111.093 133.477C112.717 133.477 114.032 132.163 114.032 130.543C114.032 128.923 112.717 127.609 111.093 127.609C109.47 127.609 108.154 128.923 108.154 130.543C108.154 132.163 109.47 133.477 111.093 133.477Z" fill="#D42A53"/>
<path d="M16.7394 150.915C17.8002 150.915 18.6601 150.057 18.6601 148.998C18.6601 147.939 17.8002 147.081 16.7394 147.081C15.6786 147.081 14.8187 147.939 14.8187 148.998C14.8187 150.057 15.6786 150.915 16.7394 150.915Z" fill="#FF6584"/>
<path d="M26.4435 158.99H25.8557V180.819H26.4435V158.99Z" fill="#3F3D56"/>
<path d="M26.1496 162.077C27.8577 162.077 29.2423 160.695 29.2423 158.99C29.2423 157.285 27.8577 155.903 26.1496 155.903C24.4416 155.903 23.057 157.285 23.057 158.99C23.057 160.695 24.4416 162.077 26.1496 162.077Z" fill="#3F3D56"/>
<path d="M26.1497 172.444C26.1497 172.444 25.7079 162.959 16.6508 164.062Z" fill="#3F3D56"/>
</g>
<defs>
<clipPath id="clip0">
<rect width="236" height="181" fill="white"/>
</clipPath>
</defs>
</svg>
