<svg width="20" height="10" viewBox="0 0 20 10" fill="none" xmlns="http://www.w3.org/2000/svg">
<path d="M19.1409 3.49625L16.435 1.81223C14.5302 0.626641 12.305 0 10 0C7.69504 0 5.4698 0.626641 3.56496 1.81223L0.859102 3.49625C0.321172 3.83105 0 4.3932 0 5C0 5.6068 0.321172 6.16895 0.859102 6.50375L3.56496 8.18777C5.4698 9.37336 7.69504 10 10 10C12.305 10 14.5302 9.37336 16.435 8.18777L19.1409 6.50375C19.6788 6.16895 20 5.6068 20 5C20 4.3932 19.6788 3.83105 19.1409 3.49625V3.49625ZM10 8.125C8.27688 8.125 6.875 6.72312 6.875 5C6.875 3.27688 8.27688 1.875 10 1.875C11.7231 1.875 13.125 3.27688 13.125 5C13.125 6.72312 11.7231 8.125 10 8.125ZM1.51961 5.4425C1.34828 5.33586 1.25 5.17457 1.25 5C1.25 4.82543 1.34828 4.66414 1.51957 4.5575L4.22543 2.87348C5.1625 2.29027 6.18707 1.86566 7.25148 1.59891C6.26008 2.4016 5.625 3.62793 5.625 5C5.625 6.37207 6.26008 7.5984 7.25148 8.40113C6.18707 8.13438 5.1625 7.70977 4.22543 7.12656L1.51961 5.4425ZM18.4804 5.4425L15.7746 7.12652C14.8375 7.70973 13.813 8.13434 12.7485 8.40109C13.7399 7.5984 14.375 6.37207 14.375 5C14.375 3.62793 13.7399 2.4016 12.7485 1.59887C13.8129 1.86562 14.8375 2.29023 15.7746 2.87344L18.4804 4.55746C18.6517 4.6641 18.75 4.82543 18.75 5C18.75 5.17457 18.6517 5.3359 18.4804 5.4425Z" fill="#D52A53"/>
<path d="M10 6.25C10.6904 6.25 11.25 5.69036 11.25 5C11.25 4.30964 10.6904 3.75 10 3.75C9.30964 3.75 8.75 4.30964 8.75 5C8.75 5.69036 9.30964 6.25 10 6.25Z" fill="#D52A53"/>
</svg>
