<svg width="14" height="14" viewBox="0 0 14 14" fill="none" xmlns="http://www.w3.org/2000/svg">
<path d="M13.9143 13.0899L0.910096 0.0856673C0.796154 -0.0282201 0.611528 -0.0282201 0.497586 0.0856673L0.0852124 0.498068C-0.0287297 0.611956 -0.0287297 0.796636 0.0852124 0.910551L2.49714 3.3225C1.34552 4.23382 0.474945 5.47616 0.0136807 6.91112C-0.00483108 6.96895 -0.00483108 7.0316 0.0136807 7.08943C1.00574 10.1764 3.81334 12.2503 6.99978 12.2503C8.24614 12.2503 9.44459 11.9345 10.5147 11.3401L13.0895 13.9148C13.2034 14.0287 13.388 14.0287 13.502 13.9148L13.9143 13.5024C14.0283 13.3885 14.0283 13.2039 13.9143 13.0899ZM6.99978 11.0836C4.74817 11.0836 2.91643 9.25187 2.91643 7.00029C2.91643 6.11396 3.20789 5.259 3.73289 4.55823L5.00096 5.82633C4.79107 6.17871 4.66644 6.57678 4.66644 7.00026C4.66644 8.28684 5.71319 9.3336 6.99978 9.3336C7.42325 9.3336 7.82135 9.20894 8.1737 8.99907L9.44178 10.2671C8.74101 10.7922 7.8861 11.0836 6.99978 11.0836Z" fill="#858587"/>
<path d="M6.75388 4.84756C6.70803 4.95666 6.7328 5.08313 6.81656 5.16685L8.83317 7.18347C8.88901 7.2393 8.96363 7.26892 9.0394 7.26892C9.07757 7.26892 9.11602 7.26151 9.15247 7.24614C9.26184 7.19998 9.33247 7.0926 9.33105 6.97385C9.31653 5.69579 8.30423 4.68352 7.02618 4.66898C6.90996 4.6815 6.80001 4.73818 6.75388 4.84756Z" fill="#858587"/>
<path d="M4.91137 3.26161C4.99882 3.34933 5.13239 3.37156 5.24349 3.31857C5.80062 3.05196 6.39166 2.91667 7.00006 2.91667C9.25167 2.91667 11.0834 4.74844 11.0834 7.00002C11.0834 7.60842 10.9481 8.19946 10.6815 8.75659C10.6282 8.86823 10.651 9.00126 10.7385 9.08871L11.7493 10.0996C11.804 10.1543 11.8781 10.185 11.9556 10.185C11.9558 10.185 11.9561 10.185 11.9561 10.185C12.0339 10.1848 12.1083 10.1537 12.1629 10.0987C12.9918 9.2616 13.6224 8.22084 13.9862 7.08918C14.0047 7.03135 14.0047 6.96871 13.9862 6.91087C12.9941 3.82386 10.1865 1.74998 7.00006 1.74998C6.12563 1.74998 5.26629 1.90549 4.44568 2.21256C4.35282 2.24732 4.28388 2.32678 4.2628 2.4239C4.24172 2.52075 4.27163 2.62187 4.34169 2.69193L4.91137 3.26161Z" fill="#858587"/>
</svg>
