<svg width="20" height="20" viewBox="0 0 20 20" fill="none" xmlns="http://www.w3.org/2000/svg">
<path d="M19.8169 9.19343L12.0442 0.901624C10.9168 -0.300541 9.08319 -0.300541 7.95584 0.901624L0.183107 9.19343C-0.0610357 9.45387 -0.0610357 9.87598 0.183107 10.1364C0.42686 10.3968 0.822957 10.3968 1.06671 10.1364L1.56242 9.60763V18.0832C1.56242 19.1418 2.36692 20 3.35931 20H6.48434C6.70008 20 6.87497 19.8134 6.87497 19.5833V13.4162C6.87497 12.2656 7.74943 11.3327 8.82811 11.3327H11.1719C12.2506 11.3327 13.125 12.2656 13.125 13.4162V19.5833C13.125 19.8134 13.2999 20 13.5157 20H16.6407C17.6331 20 18.4376 19.1418 18.4376 18.0832V9.60763L18.9333 10.1364C19.0552 10.2664 19.2153 10.3318 19.3751 10.3318C19.5349 10.3318 19.695 10.2664 19.8169 10.1364C20.061 9.87598 20.061 9.45387 19.8169 9.19343Z" fill="#D42A53"/>
</svg>
