<svg width="19" height="19" viewBox="0 0 19 19" fill="none" xmlns="http://www.w3.org/2000/svg">
<path d="M17.3918 1.56541C15.2476 -0.578779 11.7587 -0.578779 9.61446 1.56541C8.72539 2.45447 8.18068 3.58346 8.03918 4.83034C7.91876 5.89158 8.11275 6.97311 8.58737 7.92108L0 16.5085L2.44876 18.9572L3.44624 17.9598L4.5293 19.0428L6.85349 16.7186L5.77043 15.6356L6.56737 14.8386L7.65043 15.9217L9.97462 13.5975L8.89156 12.5144L11.0361 10.3698C11.9841 10.8444 13.0657 11.0385 14.1269 10.918C15.3737 10.7765 16.5028 10.2318 17.3918 9.34275C19.5361 7.19856 19.5361 3.70963 17.3918 1.56541V1.56541ZM16.6009 8.55189C15.1674 9.98544 12.9583 10.2517 11.2288 9.19924L10.8534 8.97081L7.30977 12.5144L8.39282 13.5975L7.65043 14.3399L6.56737 13.2568L4.1886 15.6356L5.27165 16.7186L4.5293 17.461L3.44624 16.378L2.44876 17.3754L1.58184 16.5085L9.98644 8.10389L9.758 7.72848C8.70559 5.99896 8.97184 3.78986 10.4054 2.35631C12.1135 0.648228 14.8928 0.648228 16.6009 2.35631C18.3091 4.06446 18.3091 6.84377 16.6009 8.55189V8.55189Z" fill="#D42A53" stroke="#D42A53" stroke-width="0.6"/>
<path d="M13.2701 3.09624C12.5559 3.81052 12.5559 4.97276 13.2701 5.68712C13.6273 6.04422 14.0964 6.22281 14.5656 6.22281C15.0347 6.22281 15.5039 6.04422 15.861 5.68708H15.861C16.5753 4.97276 16.5753 3.81052 15.861 3.09624C15.1467 2.38195 13.9844 2.38199 13.2701 3.09624V3.09624ZM15.0701 4.89618C14.7919 5.17443 14.3392 5.17436 14.0611 4.89618C13.7829 4.61797 13.7829 4.16531 14.0611 3.88717C14.2002 3.74807 14.3829 3.6785 14.5656 3.6785C14.7483 3.6785 14.9311 3.74803 15.0701 3.88714C15.3483 4.16535 15.3483 4.61797 15.0701 4.89618Z" fill="#D42A53" stroke="#D42A53" stroke-width="0.6"/>
</svg>
