<svg width="95" height="84" viewBox="0 0 95 84" fill="none" xmlns="http://www.w3.org/2000/svg">
<path d="M16.4716 72.634C16.4716 73.702 16.0996 74.572 15.3556 75.244C14.6236 75.904 13.6336 76.234 12.3856 76.234C11.7856 76.234 11.1076 76.156 10.3516 76C9.60759 75.832 8.98959 75.634 8.49759 75.406L9.16359 73.264C10.2676 73.768 11.3116 74.02 12.2956 74.02C13.4116 74.02 13.9696 73.588 13.9696 72.724C13.9696 72.304 13.7836 71.944 13.4116 71.644C13.0396 71.344 12.5356 71.05 11.8996 70.762C11.2636 70.462 10.8076 70.234 10.5316 70.078C10.2676 69.922 9.97359 69.7 9.64959 69.412C9.03759 68.872 8.73159 68.086 8.73159 67.054C8.73159 66.022 9.09159 65.212 9.81159 64.624C10.5436 64.036 11.4436 63.742 12.5116 63.742C13.5916 63.742 14.7496 63.97 15.9856 64.426L15.2656 66.388C14.2816 66.04 13.4416 65.866 12.7456 65.866C11.7496 65.866 11.2456 66.262 11.2336 67.054C11.2336 67.378 11.3416 67.624 11.5576 67.792C11.7736 67.948 11.9296 68.062 12.0256 68.134C12.1216 68.194 12.3136 68.302 12.6016 68.458C12.9016 68.602 13.1776 68.746 13.4296 68.89C13.6816 69.022 13.9096 69.154 14.1136 69.286C14.3296 69.406 14.6116 69.598 14.9596 69.862C15.3076 70.126 15.5716 70.372 15.7516 70.6C16.2316 71.2 16.4716 71.878 16.4716 72.634ZM22.5757 66.604C23.6917 66.604 24.5377 67.018 25.1137 67.846C25.6897 68.674 25.9777 69.796 25.9777 71.212C25.9777 74.56 24.6037 76.234 21.8557 76.234C21.3997 76.234 20.9017 76.126 20.3617 75.91V79.546L17.8417 79.834V66.766H20.0017L20.2177 67.504C20.9857 66.904 21.7717 66.604 22.5757 66.604ZM21.4417 74.2C22.8097 74.2 23.4937 73.228 23.4937 71.284C23.4937 69.532 22.9237 68.656 21.7837 68.656C21.3277 68.656 20.8537 68.806 20.3617 69.106V74.074C20.6977 74.158 21.0577 74.2 21.4417 74.2ZM35.1772 71.41C35.1772 73.078 34.8052 74.302 34.0612 75.082C33.3172 75.85 32.3392 76.234 31.1272 76.234C29.9152 76.234 28.9492 75.85 28.2292 75.082C27.5212 74.314 27.1672 73.096 27.1672 71.428C27.1672 69.76 27.5332 68.542 28.2652 67.774C29.0092 66.994 29.9812 66.604 31.1812 66.604C33.8452 66.604 35.1772 68.206 35.1772 71.41ZM32.7292 71.392C32.7292 70.288 32.5972 69.538 32.3332 69.142C32.0692 68.746 31.6792 68.548 31.1632 68.548C30.6592 68.548 30.2692 68.746 29.9932 69.142C29.7292 69.538 29.5972 70.3 29.5972 71.428C29.5972 73.348 30.1192 74.308 31.1632 74.308C31.6552 74.308 32.0392 74.098 32.3152 73.678C32.5912 73.246 32.7292 72.484 32.7292 71.392ZM37.4984 73.03V68.512L35.8784 68.404V66.928L37.5524 66.784V64.678L40.0724 64.462V66.766H42.7004L42.5564 68.512H40.0544V73.264C40.0544 73.612 40.1084 73.864 40.2164 74.02C40.3244 74.164 40.5524 74.236 40.9004 74.236C41.2484 74.236 41.6384 74.182 42.0704 74.074L42.4484 75.856C41.8604 76.108 41.2604 76.234 40.6484 76.234C40.0484 76.234 39.5924 76.198 39.2804 76.126C38.9804 76.054 38.7284 75.97 38.5244 75.874C38.3324 75.778 38.1644 75.64 38.0204 75.46C37.8884 75.268 37.7864 75.1 37.7144 74.956C37.6544 74.812 37.6064 74.608 37.5704 74.344C37.5224 73.984 37.4984 73.546 37.4984 73.03ZM47.6759 76.234C46.4399 76.234 45.4139 75.838 44.5979 75.046C43.7819 74.242 43.3739 73.036 43.3739 71.428C43.3739 69.808 43.7759 68.602 44.5799 67.81C45.3839 67.006 46.4159 66.604 47.6759 66.604C48.4199 66.604 49.2659 66.742 50.2139 67.018L49.7279 68.836C48.9959 68.668 48.4079 68.584 47.9639 68.584C47.2559 68.584 46.7099 68.8 46.3259 69.232C45.9539 69.652 45.7679 70.402 45.7679 71.482C45.7679 72.562 45.9719 73.312 46.3799 73.732C46.7999 74.152 47.3819 74.362 48.1259 74.362C48.5099 74.362 49.0979 74.302 49.8899 74.182L50.1959 75.82C49.2479 76.096 48.4079 76.234 47.6759 76.234ZM54.1644 67.594C54.5244 67.318 54.9504 67.084 55.4424 66.892C55.9344 66.7 56.4324 66.604 56.9364 66.604C57.4404 66.604 57.8784 66.682 58.2504 66.838C58.6224 66.982 58.9044 67.204 59.0964 67.504C59.4444 68.044 59.6184 68.77 59.6184 69.682V76H56.9904V70.132C56.9904 69.364 56.8284 68.908 56.5044 68.764C56.3484 68.692 56.1384 68.656 55.8744 68.656C55.2024 68.656 54.6324 68.878 54.1644 69.322V76H51.6444V63.454L54.1644 63.292V67.594ZM63.4686 71.644C63.4926 73.444 64.2846 74.344 65.8446 74.344C66.5766 74.344 67.3026 74.206 68.0226 73.93L68.4546 75.64C67.5306 76.036 66.5046 76.234 65.3766 76.234C62.5326 76.234 61.1106 74.56 61.1106 71.212C61.1106 69.892 61.4646 68.794 62.1726 67.918C62.8806 67.042 63.9006 66.604 65.2326 66.604C66.3006 66.604 67.1226 66.892 67.6986 67.468C68.2866 68.032 68.5806 68.824 68.5806 69.844C68.5806 70.444 68.5026 71.044 68.3466 71.644H63.4686ZM66.5646 70.276V70.168C66.5646 68.98 66.1446 68.386 65.3046 68.386C64.2966 68.386 63.6906 69.016 63.4866 70.276H66.5646ZM74.043 76.234C72.807 76.234 71.781 75.838 70.965 75.046C70.149 74.242 69.741 73.036 69.741 71.428C69.741 69.808 70.143 68.602 70.947 67.81C71.751 67.006 72.783 66.604 74.043 66.604C74.787 66.604 75.633 66.742 76.581 67.018L76.095 68.836C75.363 68.668 74.775 68.584 74.331 68.584C73.623 68.584 73.077 68.8 72.693 69.232C72.321 69.652 72.135 70.402 72.135 71.482C72.135 72.562 72.339 73.312 72.747 73.732C73.167 74.152 73.749 74.362 74.493 74.362C74.877 74.362 75.465 74.302 76.257 74.182L76.563 75.82C75.615 76.096 74.775 76.234 74.043 76.234ZM80.5316 76H78.0116V63.418L80.5316 63.238V70.726L83.5916 66.784H86.3276L82.9976 70.942L87.0296 76H84.1496L80.5316 71.302V76Z" fill="white"/>
<path d="M48 0C39.1732 0 32 7.88086 32 17.5781C32 20.8594 32.8268 24.0528 34.4001 26.8067L46.9154 49.3081C47.1289 49.689 47.4489 49.9235 47.8223 49.9821C48.3288 50.0698 48.8891 49.8356 49.1823 49.2789L61.7334 26.5723C63.2266 23.8771 64 20.7423 64 17.5781C64 7.88086 56.8268 0 48 0ZM48 26.3672C43.5202 26.3672 40 22.3828 40 17.5781C40 12.744 43.5999 8.78907 48 8.78907C52.4001 8.78907 56 12.744 56 17.5781C56 22.3535 52.5332 26.3672 48 26.3672Z" fill="white"/>
<path d="M48 0V8.78915C52.4001 8.78915 56 12.7442 56 17.5783C56 22.3537 52.5332 26.3674 48 26.3674V49.9996C48.455 50.0112 48.9229 49.7716 49.1822 49.2794L61.7333 26.5725C63.2266 23.8773 64 20.7425 64 17.5783C64 7.88093 56.8268 0 48 0Z" fill="white"/>
</svg>
