<svg width="159" height="213" viewBox="0 0 159 213" fill="none" xmlns="http://www.w3.org/2000/svg">
<path d="M16.992 195.268C16.992 197.404 16.248 199.144 14.76 200.488C13.296 201.808 11.316 202.468 8.82 202.468C7.62 202.468 6.264 202.312 4.752 202C3.264 201.664 2.028 201.268 1.044 200.812L2.376 196.528C4.584 197.536 6.672 198.04 8.64 198.04C10.872 198.04 11.988 197.176 11.988 195.448C11.988 194.608 11.616 193.888 10.872 193.288C10.128 192.688 9.12 192.1 7.848 191.524C6.576 190.924 5.664 190.468 5.112 190.156C4.584 189.844 3.996 189.4 3.348 188.824C2.124 187.744 1.512 186.172 1.512 184.108C1.512 182.044 2.232 180.424 3.672 179.248C5.136 178.072 6.936 177.484 9.072 177.484C11.232 177.484 13.548 177.94 16.02 178.852L14.58 182.776C12.612 182.08 10.932 181.732 9.54 181.732C7.548 181.732 6.54 182.524 6.516 184.108C6.516 184.756 6.732 185.248 7.164 185.584C7.596 185.896 7.908 186.124 8.1 186.268C8.292 186.388 8.676 186.604 9.252 186.916C9.852 187.204 10.404 187.492 10.908 187.78C11.412 188.044 11.868 188.308 12.276 188.572C12.708 188.812 13.272 189.196 13.968 189.724C14.664 190.252 15.192 190.744 15.552 191.2C16.512 192.4 16.992 193.756 16.992 195.268ZM29.2002 183.208C31.4322 183.208 33.1242 184.036 34.2762 185.692C35.4282 187.348 36.0042 189.592 36.0042 192.424C36.0042 199.12 33.2562 202.468 27.7602 202.468C26.8482 202.468 25.8522 202.252 24.7722 201.82V209.092L19.7322 209.668V183.532H24.0522L24.4842 185.008C26.0202 183.808 27.5922 183.208 29.2002 183.208ZM26.9322 198.4C29.6682 198.4 31.0362 196.456 31.0362 192.568C31.0362 189.064 29.8962 187.312 27.6162 187.312C26.7042 187.312 25.7562 187.612 24.7722 188.212V198.148C25.4442 198.316 26.1642 198.4 26.9322 198.4ZM54.4033 192.82C54.4033 196.156 53.6593 198.604 52.1713 200.164C50.6833 201.7 48.7273 202.468 46.3033 202.468C43.8793 202.468 41.9473 201.7 40.5073 200.164C39.0913 198.628 38.3833 196.192 38.3833 192.856C38.3833 189.52 39.1153 187.084 40.5793 185.548C42.0673 183.988 44.0113 183.208 46.4113 183.208C51.7393 183.208 54.4033 186.412 54.4033 192.82ZM49.5073 192.784C49.5073 190.576 49.2433 189.076 48.7153 188.284C48.1873 187.492 47.4073 187.096 46.3753 187.096C45.3673 187.096 44.5873 187.492 44.0353 188.284C43.5073 189.076 43.2433 190.6 43.2433 192.856C43.2433 196.696 44.2873 198.616 46.3753 198.616C47.3593 198.616 48.1273 198.196 48.6793 197.356C49.2313 196.492 49.5073 194.968 49.5073 192.784ZM59.0456 196.06V187.024L55.8056 186.808V183.856L59.1536 183.568V179.356L64.1936 178.924V183.532H69.4496L69.1616 187.024H64.1576V196.528C64.1576 197.224 64.2656 197.728 64.4816 198.04C64.6976 198.328 65.1536 198.472 65.8496 198.472C66.5456 198.472 67.3256 198.364 68.1896 198.148L68.9456 201.712C67.7696 202.216 66.5696 202.468 65.3456 202.468C64.1456 202.468 63.2336 202.396 62.6096 202.252C62.0096 202.108 61.5056 201.94 61.0976 201.748C60.7136 201.556 60.3776 201.28 60.0896 200.92C59.8256 200.536 59.6216 200.2 59.4776 199.912C59.3576 199.624 59.2616 199.216 59.1896 198.688C59.0936 197.968 59.0456 197.092 59.0456 196.06ZM79.4005 202.468C76.9285 202.468 74.8765 201.676 73.2445 200.092C71.6125 198.484 70.7965 196.072 70.7965 192.856C70.7965 189.616 71.6005 187.204 73.2085 185.62C74.8165 184.012 76.8805 183.208 79.4005 183.208C80.8885 183.208 82.5805 183.484 84.4765 184.036L83.5045 187.672C82.0405 187.336 80.8645 187.168 79.9765 187.168C78.5605 187.168 77.4685 187.6 76.7005 188.464C75.9565 189.304 75.5845 190.804 75.5845 192.964C75.5845 195.124 75.9925 196.624 76.8085 197.464C77.6485 198.304 78.8125 198.724 80.3005 198.724C81.0685 198.724 82.2445 198.604 83.8285 198.364L84.4405 201.64C82.5445 202.192 80.8645 202.468 79.4005 202.468ZM92.3777 185.188C93.0977 184.636 93.9497 184.168 94.9337 183.784C95.9177 183.4 96.9137 183.208 97.9217 183.208C98.9297 183.208 99.8057 183.364 100.55 183.676C101.294 183.964 101.858 184.408 102.242 185.008C102.938 186.088 103.286 187.54 103.286 189.364V202H98.0297V190.264C98.0297 188.728 97.7057 187.816 97.0577 187.528C96.7457 187.384 96.3257 187.312 95.7977 187.312C94.4537 187.312 93.3137 187.756 92.3777 188.644V202H87.3377V176.908L92.3777 176.584V185.188ZM110.986 193.288C111.034 196.888 112.618 198.688 115.738 198.688C117.202 198.688 118.654 198.412 120.094 197.86L120.958 201.28C119.11 202.072 117.058 202.468 114.802 202.468C109.114 202.468 106.27 199.12 106.27 192.424C106.27 189.784 106.978 187.588 108.394 185.836C109.81 184.084 111.85 183.208 114.514 183.208C116.65 183.208 118.294 183.784 119.446 184.936C120.622 186.064 121.21 187.648 121.21 189.688C121.21 190.888 121.054 192.088 120.742 193.288H110.986ZM117.178 190.552V190.336C117.178 187.96 116.338 186.772 114.658 186.772C112.642 186.772 111.43 188.032 111.022 190.552H117.178ZM132.135 202.468C129.663 202.468 127.611 201.676 125.979 200.092C124.347 198.484 123.531 196.072 123.531 192.856C123.531 189.616 124.335 187.204 125.943 185.62C127.551 184.012 129.615 183.208 132.135 183.208C133.623 183.208 135.315 183.484 137.211 184.036L136.239 187.672C134.775 187.336 133.599 187.168 132.711 187.168C131.295 187.168 130.203 187.6 129.435 188.464C128.691 189.304 128.319 190.804 128.319 192.964C128.319 195.124 128.727 196.624 129.543 197.464C130.383 198.304 131.547 198.724 133.035 198.724C133.803 198.724 134.979 198.604 136.563 198.364L137.175 201.64C135.279 202.192 133.599 202.468 132.135 202.468ZM145.112 202H140.072V176.836L145.112 176.476V191.452L151.232 183.568H156.704L150.044 191.884L158.108 202H152.348L145.112 192.604V202Z" fill="#D52A53"/>
<path d="M79 0C51.4161 0 29 23.6426 29 52.7344C29 62.5782 31.5839 72.1585 36.5003 80.4202L75.6106 147.924C76.2778 149.067 77.2778 149.77 78.4447 149.946C80.0275 150.21 81.7783 149.507 82.6947 147.837L121.917 79.7168C126.583 71.6312 129 62.2269 129 52.7344C129 23.6426 106.584 0 79 0ZM79 79.1016C65.0006 79.1016 54 67.1485 54 52.7344C54 38.2321 65.2497 26.3672 79 26.3672C92.7503 26.3672 104 38.2321 104 52.7344C104 67.0606 93.1664 79.1016 79 79.1016Z" fill="#F04770"/>
<path d="M79 0V26.3672C92.7503 26.3672 104 38.2321 104 52.7344C104 67.0606 93.1664 79.1016 79 79.1016V149.997C80.4219 150.032 81.8842 149.313 82.6944 147.837L121.917 79.7168C126.583 71.6312 129 62.2269 129 52.7344C129 23.6426 106.584 0 79 0Z" fill="#D52A53"/>
</svg>
