<svg width="12" height="12" viewBox="0 0 12 12" fill="none" xmlns="http://www.w3.org/2000/svg">
<path d="M9.49667 5.30675L4.4751 0.292649C4.29017 0.0975228 4.05924 0 3.78186 0C3.50448 0 3.27356 0.0976307 3.08863 0.292649L2.50327 0.870394C2.31325 1.0604 2.21823 1.29135 2.21823 1.56349C2.21823 1.83049 2.31322 2.06419 2.50327 2.26439L6.24645 6.00001L2.50311 9.74332C2.31314 9.93333 2.21812 10.1643 2.21812 10.4365C2.21812 10.7034 2.31311 10.9372 2.50311 11.1373L3.08852 11.715C3.27852 11.905 3.50969 12 3.78175 12C4.05393 12 4.28504 11.905 4.47499 11.715L9.49667 6.70088C9.68676 6.50063 9.78185 6.26698 9.78185 5.99999C9.78188 5.72784 9.68676 5.49675 9.49667 5.30675Z" fill="#CBCBCF"/>
</svg>
