<svg width="15" height="20" viewBox="0 0 15 20" fill="none" xmlns="http://www.w3.org/2000/svg">
<path d="M7.38655 9.63402C8.57636 9.63402 9.60664 9.15932 10.4484 8.22274C11.2903 7.28632 11.717 6.14055 11.717 4.81686C11.717 3.49363 11.2903 2.3477 10.4483 1.41097C9.60636 0.474697 8.57622 0 7.38655 0C6.19661 0 5.16661 0.474697 4.3248 1.41112C3.48299 2.34755 3.05612 3.49347 3.05612 4.81686C3.05612 6.14055 3.48299 7.28647 4.32494 8.2229C5.16688 9.15917 6.19702 9.63402 7.38655 9.63402Z" fill="#CBCBCF"/>
<path d="M14.9636 15.379C14.9394 14.9892 14.8903 14.5641 14.818 14.1152C14.745 13.663 14.651 13.2354 14.5386 12.8446C14.4224 12.4407 14.2644 12.0419 14.069 11.6597C13.8663 11.2629 13.6282 10.9175 13.361 10.6332C13.0816 10.3358 12.7395 10.0967 12.3439 9.9223C11.9496 9.74881 11.5127 9.66092 11.0454 9.66092C10.8619 9.66092 10.6844 9.74469 10.3416 9.99295C10.1306 10.146 9.88386 10.323 9.60843 10.5188C9.37291 10.6857 9.05385 10.8421 8.65977 10.9837C8.27528 11.1221 7.8849 11.1923 7.49959 11.1923C7.11428 11.1923 6.72403 11.1221 6.33914 10.9837C5.94546 10.8422 5.62641 10.6858 5.39116 10.5189C5.11833 10.325 4.87143 10.148 4.65731 9.9928C4.31493 9.74454 4.1373 9.66077 3.95376 9.66077C3.48629 9.66077 3.04955 9.74881 2.65546 9.92245C2.26014 10.0966 1.9179 10.3357 1.63821 10.6334C1.37114 10.9178 1.13288 11.2631 0.930419 11.6597C0.735227 12.0419 0.577208 12.4406 0.460888 12.8448C0.348547 13.2356 0.254586 13.663 0.181612 14.1152C0.109324 14.5635 0.0602173 14.9888 0.0359383 15.3794C0.0120709 15.7621 0 16.1593 0 16.5604C0 17.6044 0.298343 18.4496 0.886662 19.0729C1.46771 19.688 2.23654 20 3.17149 20H11.8285C12.7635 20 13.532 19.6882 14.1132 19.0729C14.7017 18.4501 15 17.6047 15 16.5603C14.9999 16.1573 14.9877 15.7598 14.9636 15.379Z" fill="#CBCBCF"/>
</svg>
