<svg width="15" height="20" viewBox="0 0 15 20" fill="none" xmlns="http://www.w3.org/2000/svg">
<path d="M7.38655 9.63402C8.57636 9.63402 9.60664 9.15932 10.4484 8.22274C11.2903 7.28632 11.717 6.14055 11.717 4.81686C11.717 3.49363 11.2903 2.3477 10.4483 1.41097C9.60636 0.474697 8.57622 0 7.38655 0C6.19661 0 5.16661 0.474697 4.3248 1.41112C3.48299 2.34755 3.05612 3.49347 3.05612 4.81686C3.05612 6.14055 3.48299 7.28647 4.32494 8.2229C5.16688 9.15917 6.19702 9.63402 7.38655 9.63402Z" fill="#D42A53"/>
<path d="M14.9636 15.3788C14.9394 14.9891 14.8903 14.564 14.818 14.1151C14.745 13.6628 14.651 13.2353 14.5386 12.8445C14.4224 12.4406 14.2644 12.0418 14.069 11.6595C13.8663 11.2628 13.6282 10.9173 13.361 10.6331C13.0816 10.3357 12.7395 10.0966 12.3439 9.92218C11.9496 9.74869 11.5127 9.6608 11.0454 9.6608C10.8619 9.6608 10.6844 9.74457 10.3416 9.99283C10.1306 10.1459 9.88386 10.3229 9.60843 10.5186C9.37291 10.6856 9.05385 10.842 8.65977 10.9836C8.27528 11.122 7.8849 11.1922 7.49959 11.1922C7.11428 11.1922 6.72403 11.122 6.33914 10.9836C5.94546 10.8421 5.62641 10.6857 5.39116 10.5188C5.11833 10.3249 4.87143 10.1479 4.65731 9.99267C4.31493 9.74441 4.1373 9.66064 3.95376 9.66064C3.48629 9.66064 3.04955 9.74869 2.65546 9.92233C2.26014 10.0964 1.9179 10.3355 1.63821 10.6332C1.37114 10.9177 1.13288 11.263 0.930419 11.6595C0.735227 12.0418 0.577208 12.4405 0.460888 12.8447C0.348547 13.2354 0.254586 13.6628 0.181612 14.1151C0.109324 14.5634 0.0602173 14.9887 0.0359383 15.3793C0.0120709 15.762 0 16.1592 0 16.5603C0 17.6043 0.298343 18.4495 0.886662 19.0728C1.46771 19.6879 2.23654 19.9999 3.17149 19.9999H11.8285C12.7635 19.9999 13.532 19.688 14.1132 19.0728C14.7017 18.4499 15 17.6046 15 16.5602C14.9999 16.1572 14.9877 15.7597 14.9636 15.3788Z" fill="#D42A53"/>
</svg>
