<svg width="20" height="20" viewBox="0 0 20 20" fill="none" xmlns="http://www.w3.org/2000/svg">
<path d="M19.0943 19.5404C19.3073 19.5388 19.5427 19.4666 19.7636 19.2401C19.9915 18.9862 19.9999 18.6936 20 18.624V0.922874C20 0.413197 19.5863 0 19.0759 0H7.53006C7.76455 0.231412 7.93793 0.508974 8.04101 0.812678H8.72253C9.20879 0.812678 9.6083 1.18977 9.64456 1.66678H11.9154C12.7347 1.66678 13.4013 2.33233 13.4013 3.15036V19.5469C13.4013 19.5469 17.2119 19.5426 19.0943 19.5404Z" fill="#CBCBCF"/>
<path d="M6.86707 1.46845C6.85832 1.03466 6.49562 0.681763 6.05855 0.681763C5.62149 0.681763 5.25876 1.03466 5.25004 1.46842C5.24297 1.81831 4.95764 2.09825 4.60807 2.09825H3.75376C3.75384 2.24166 3.75372 2.66299 3.75376 2.80136H8.36335C8.36359 2.6125 8.36269 2.27996 8.36335 2.09825H7.50904C7.15951 2.09825 6.87414 1.81831 6.86707 1.46845Z" fill="#CBCBCF"/>
<path d="M11.9154 2.95227H9.64758V3.08693C9.64758 3.63834 9.19872 4.0869 8.64701 4.0869H3.47015C2.91844 4.0869 2.46958 3.6383 2.46958 3.08693V2.95227H0.201747C0.0904992 2.95227 0 3.04109 0 3.15027V19.802C0 19.9111 0.0904992 20 0.201747 20H11.9154C12.0267 20 12.1172 19.9111 12.1172 19.802V3.15027C12.1171 3.04109 12.0266 2.95227 11.9154 2.95227ZM1.41223 6.71047C1.6518 6.44569 2.06061 6.42525 2.32539 6.66483L2.64343 6.95259L3.82996 5.59745C4.06516 5.32876 4.47361 5.30176 4.74226 5.53696C5.0109 5.77216 5.03798 6.18063 4.80275 6.44928L3.18334 8.29882C2.93036 8.59557 2.47661 8.55208 2.26318 8.35236L1.45787 7.6237C1.19314 7.38412 1.1727 6.97526 1.41223 6.71047ZM10.2183 18.5467H1.83855C1.48151 18.5467 1.19204 18.2572 1.19204 17.9001C1.19204 17.543 1.48147 17.2536 1.83855 17.2536H10.2183C10.5753 17.2536 10.8648 17.543 10.8648 17.9001C10.8648 18.2572 10.5753 18.5467 10.2183 18.5467ZM1.41223 14.1221C1.6518 13.8573 2.06061 13.8369 2.32539 14.0764L2.64343 14.3642L3.82996 13.0091C4.06516 12.7404 4.47361 12.7133 4.74226 12.9486C5.0109 13.1838 5.03798 13.5922 4.80275 13.8608L3.18334 15.7104C2.93036 16.0072 2.47661 15.9636 2.26318 15.7639L1.45787 15.0353C1.19314 14.7957 1.1727 14.3869 1.41223 14.1221ZM10.2183 15.9033H6.5835C6.22647 15.9033 5.93699 15.6138 5.93699 15.2567C5.93699 14.8997 6.22647 14.6102 6.5835 14.6102H10.2183C10.5753 14.6102 10.8648 14.8997 10.8648 15.2567C10.8648 15.6138 10.5753 15.9033 10.2183 15.9033ZM10.2183 11.1759H1.83855C1.48151 11.1759 1.19204 10.8864 1.19204 10.5294C1.19204 10.1723 1.48147 9.88284 1.83855 9.88284H10.2183C10.5753 9.88284 10.8648 10.1723 10.8648 10.5294C10.8648 10.8864 10.5753 11.1759 10.2183 11.1759ZM10.2183 8.49417H6.5835C6.22647 8.49417 5.93699 8.20473 5.93699 7.84764C5.93699 7.4906 6.22647 7.20112 6.5835 7.20112H10.2183C10.5753 7.20112 10.8648 7.4906 10.8648 7.84764C10.8648 8.20469 10.5753 8.49417 10.2183 8.49417Z" fill="#CBCBCF"/>
</svg>
