<svg width="17" height="17" viewBox="0 0 17 17" fill="none" xmlns="http://www.w3.org/2000/svg">
<path d="M7.08459 1.02618H9.92579V1.50426H10.9518V0.959259C10.952 0.430344 10.5219 0 9.99323 0H7.01714C6.48849 0 6.0584 0.430344 6.0584 0.959259V1.50426H7.08459V1.02618Z" fill="black"/>
<path d="M13.3215 5.56982H3.68893C3.42499 5.56982 3.21721 5.79498 3.23848 6.05814L4.04379 16.016C4.08867 16.5719 4.55234 17 5.1094 17H11.9009C12.4579 17 12.9216 16.5719 12.9665 16.0158L13.7718 6.05814C13.7932 5.79498 13.5854 5.56982 13.3215 5.56982V5.56982ZM6.02132 15.9379C6.01055 15.9385 5.99979 15.9389 5.98915 15.9389C5.72016 15.9389 5.49435 15.7295 5.47762 15.4574L4.97296 7.28251C4.95558 6.99963 5.17075 6.75619 5.45349 6.73881C5.73533 6.72169 5.97982 6.93634 5.9972 7.21935L6.50173 15.3942C6.51924 15.6771 6.30407 15.9204 6.02132 15.9379V15.9379ZM9.024 15.4258C9.024 15.7091 8.7943 15.9388 8.51091 15.9388C8.22751 15.9388 7.99781 15.7091 7.99781 15.4258V7.25086C7.99781 6.96747 8.22751 6.73777 8.51091 6.73777C8.79417 6.73777 9.024 6.96747 9.024 7.25086V15.4258ZM12.0374 7.28108L11.5556 15.4559C11.5397 15.7286 11.3135 15.9388 11.0439 15.9388C11.0338 15.9388 11.0236 15.9385 11.0133 15.938C10.7305 15.9213 10.5146 15.6785 10.5314 15.3956L11.0131 7.22064C11.0297 6.93777 11.2717 6.72195 11.5553 6.73868C11.8382 6.75528 12.054 6.99821 12.0374 7.28108V7.28108Z" fill="black"/>
<path d="M15.0957 3.98653L14.7588 2.97643C14.6699 2.71015 14.4207 2.53052 14.1399 2.53052H2.87038C2.58971 2.53052 2.3403 2.71015 2.25158 2.97643L1.91462 3.98653C1.84965 4.18134 1.93421 4.38004 2.09205 4.47913C2.15639 4.51946 2.23252 4.54372 2.31618 4.54372H14.6942C14.7779 4.54372 14.8541 4.51946 14.9183 4.479C15.0762 4.37991 15.1607 4.18121 15.0957 3.98653Z" fill="black"/>
</svg>
